<?xml version="1.0" encoding="UTF-8"?><svg id="uuid-80c178c3-1971-4aa0-89b5-5ff3780a7240" xmlns="http://www.w3.org/2000/svg" xmlns:xlink="http://www.w3.org/1999/xlink" viewBox="0 0 56.86 48.91"><defs><style>.uuid-1a3ff107-9d6c-49d0-a715-419627ea07e6{font-family:'NanumSquareOTF_acEB-KSCpc-EUC-H', NanumSquareOTF_ac;font-size:25.62px;letter-spacing:-.07em;}.uuid-1a3ff107-9d6c-49d0-a715-419627ea07e6,.uuid-e8503a3a-3e97-4e8e-8d3a-5f6ac78b8431{fill:#fff;}.uuid-18bf4846-bfef-4ed2-813f-343b95eab97e{filter:url(#uuid-c7e9a84d-d080-4d74-b7cd-700d2276a137);}</style><filter id="uuid-c7e9a84d-d080-4d74-b7cd-700d2276a137" x="-15.34" y="-8.74" width="88" height="80" filterUnits="userSpaceOnUse"><feOffset dx="0" dy="7"/><feGaussianBlur result="uuid-2f3a758a-235a-4986-91e6-c65ea96afafa" stdDeviation="5"/><feFlood flood-color="#000" flood-opacity=".5"/><feComposite in2="uuid-2f3a758a-235a-4986-91e6-c65ea96afafa" operator="in"/><feComposite in="SourceGraphic"/></filter></defs><g id="uuid-787f56a7-6bcf-4686-bd64-e48645427525"><g class="uuid-18bf4846-bfef-4ed2-813f-343b95eab97e"><path class="uuid-e8503a3a-3e97-4e8e-8d3a-5f6ac78b8431" d="M25.31,29.28l-10.27-6.42c-.93-.58-2.15.09-2.15,1.19v12.84c0,1.1,1.21,1.77,2.15,1.19l10.27-6.42c.88-.55.88-1.83,0-2.38Z"/><text class="uuid-1a3ff107-9d6c-49d0-a715-419627ea07e6" transform="translate(24.2 20.49)"><tspan x="0" y="0">AR</tspan></text><path class="uuid-e8503a3a-3e97-4e8e-8d3a-5f6ac78b8431" d="M33.88,24.99v12.62c0,4.58-3.73,8.31-8.31,8.31h-14.27c-4.58,0-8.31-3.73-8.31-8.31v-14.27c0-4.58,3.73-8.31,8.31-8.31h12.04v-2.99h-12.04C5.07,12.04,0,17.11,0,23.34v14.27c0,6.23,5.07,11.3,11.3,11.3h14.27c6.23,0,11.3-5.07,11.3-11.3v-12.62h-2.99Z"/></g></g></svg>