<?xml version="1.0" encoding="UTF-8"?><svg id="uuid-4ee0410c-7c5a-4fb2-b8f8-9935ba623a02" xmlns="http://www.w3.org/2000/svg" xmlns:xlink="http://www.w3.org/1999/xlink" viewBox="0 0 57.08 48.91"><defs><style>.uuid-f17f0a38-402a-4e04-aeb4-98428df0a6be{font-family:'NanumSquareOTF_acEB-KSCpc-EUC-H', NanumSquareOTF_ac;font-size:25.62px;letter-spacing:-.08em;}.uuid-f17f0a38-402a-4e04-aeb4-98428df0a6be,.uuid-2aac57c0-be1e-4b27-a9dd-40af034d3351{fill:#fff;}.uuid-3528d053-91ad-4c64-9db4-5630f94e6643{filter:url(#uuid-b4b2dfcd-1e97-464d-b710-0555962bc4df);}</style><filter id="uuid-b4b2dfcd-1e97-464d-b710-0555962bc4df" x="-15.05" y="-8.62" width="88" height="80" filterUnits="userSpaceOnUse"><feOffset dx="0" dy="7"/><feGaussianBlur result="uuid-929eb4c6-f09d-44fd-8135-d3606de0bcac" stdDeviation="5"/><feFlood flood-color="#000" flood-opacity=".5"/><feComposite in2="uuid-929eb4c6-f09d-44fd-8135-d3606de0bcac" operator="in"/><feComposite in="SourceGraphic"/></filter></defs><g id="uuid-d4051626-1505-4554-9b9e-1921e6da7fb6"><g class="uuid-3528d053-91ad-4c64-9db4-5630f94e6643"><path class="uuid-2aac57c0-be1e-4b27-a9dd-40af034d3351" d="M25.31,29.28l-10.27-6.42c-.93-.58-2.15.09-2.15,1.19v12.84c0,1.1,1.21,1.77,2.15,1.19l10.27-6.42c.88-.55.88-1.83,0-2.38Z"/><text class="uuid-f17f0a38-402a-4e04-aeb4-98428df0a6be" transform="translate(23.98 20.49)"><tspan x="0" y="0">VR</tspan></text><path class="uuid-2aac57c0-be1e-4b27-a9dd-40af034d3351" d="M33.88,24.99v12.62c0,4.58-3.73,8.31-8.31,8.31h-14.27c-4.58,0-8.31-3.73-8.31-8.31v-14.27c0-4.58,3.73-8.31,8.31-8.31h11.56v-2.99h-11.56C5.07,12.04,0,17.11,0,23.34v14.27c0,6.23,5.07,11.3,11.3,11.3h14.27c6.23,0,11.3-5.07,11.3-11.3v-12.62h-2.99Z"/></g></g></svg>